<svg id="Layer_1" data-name="Layer 1" xmlns="http://www.w3.org/2000/svg" viewBox="0 0 124.44 45"><defs><style>.cls-1{fill:#fff;}</style></defs><title>Primed_logo_White</title><path class="cls-1" d="M38.67,19.78V17.11H35.91V33h2.88V25.09a5.47,5.47,0,0,1,1.34-4,4.84,4.84,0,0,1,3.67-1.4,5.62,5.62,0,0,1,.66,0V17a8.06,8.06,0,0,0-3.57.72A4.91,4.91,0,0,0,38.67,19.78Z"/><rect class="cls-1" x="47.45" y="17.11" width="2.88" height="15.9"/><path class="cls-1" d="M48.89,10.3a1.85,1.85,0,0,0-1.39.56,1.76,1.76,0,0,0-.56,1.33,1.74,1.74,0,0,0,.56,1.32,1.91,1.91,0,0,0,1.39.54,2,2,0,0,0,1.4-.55,1.88,1.88,0,0,0,.55-1.37,1.69,1.69,0,0,0-.55-1.3A1.94,1.94,0,0,0,48.89,10.3Z"/><path class="cls-1" d="M75,17a8.14,8.14,0,0,0-3.61.78A6.11,6.11,0,0,0,68.9,19.9a5.16,5.16,0,0,0-2.22-2.19,7,7,0,0,0-3.3-.75,7.48,7.48,0,0,0-3.21.65,5.56,5.56,0,0,0-2.28,1.87V17.11H55.13V33H58V24.82a5.46,5.46,0,0,1,1.29-3.91,4.54,4.54,0,0,1,3.48-1.37,3.92,3.92,0,0,1,3,1.17,5,5,0,0,1,1.06,3.48V33h2.88V24.82a5.46,5.46,0,0,1,1.29-3.91,4.54,4.54,0,0,1,3.48-1.37,3.92,3.92,0,0,1,3,1.17,5,5,0,0,1,1.06,3.48V33h2.88V23.86a7,7,0,0,0-1.75-5.16A6.45,6.45,0,0,0,75,17Z"/><path class="cls-1" d="M97,18A8,8,0,0,0,93,17a8.1,8.1,0,0,0-4.09,1A7.34,7.34,0,0,0,86,20.89a8.43,8.43,0,0,0-1,4.17,8.3,8.3,0,0,0,1.07,4.2,7.32,7.32,0,0,0,3,2.9,10.16,10.16,0,0,0,8.06.37,7,7,0,0,0,2.68-1.92l-1.59-1.86a5.9,5.9,0,0,1-4.59,1.92,6.06,6.06,0,0,1-3.91-1.27A5,5,0,0,1,87.86,26h12.9a8.25,8.25,0,0,0,.06-.87,8.82,8.82,0,0,0-1-4.26A7.39,7.39,0,0,0,97,18ZM87.86,24a5.08,5.08,0,0,1,1.64-3.3A5,5,0,0,1,93,19.39a4.91,4.91,0,0,1,3.47,1.28A5.07,5.07,0,0,1,98.06,24Z"/><path class="cls-1" d="M116.81,10.75v8.76a6,6,0,0,0-2.4-1.9,7.46,7.46,0,0,0-3.15-.65,8.41,8.41,0,0,0-4.14,1,7.32,7.32,0,0,0-2.86,2.85,8.45,8.45,0,0,0-1,4.23,8.55,8.55,0,0,0,1,4.25,7.28,7.28,0,0,0,2.86,2.86,8.41,8.41,0,0,0,4.14,1,7.53,7.53,0,0,0,3.24-.69,6.1,6.1,0,0,0,2.43-2V33h2.76V10.75ZM116.15,28a5,5,0,0,1-1.92,2,5.69,5.69,0,0,1-5.47,0,5.22,5.22,0,0,1-1.92-2,6,6,0,0,1-.71-2.93,5.9,5.9,0,0,1,.71-2.92,4.92,4.92,0,0,1,1.92-2,5.77,5.77,0,0,1,5.47,0,4.74,4.74,0,0,1,1.92,2,6,6,0,0,1,.69,2.92A6.1,6.1,0,0,1,116.15,28Z"/><path class="cls-1" d="M20.12,4.74H9.62A4.89,4.89,0,0,0,4.74,9.62v7.5A4.88,4.88,0,0,0,9.62,22H19.94a5.16,5.16,0,0,0,3.68-1.57A4.71,4.71,0,0,0,25,17a4.87,4.87,0,0,0-4.87-4.71H12.24v7.5H9.62A2.63,2.63,0,0,1,7,17.12V9.62A2.63,2.63,0,0,1,9.62,7h10.5A10.14,10.14,0,0,1,30.23,17.61a10.28,10.28,0,0,1-10.44,9.63H9.62a4.89,4.89,0,0,0-4.88,4.88v3.75a4.88,4.88,0,0,0,9.75,0V29.49h5.3A12.53,12.53,0,0,0,32.48,17.72a12.39,12.39,0,0,0-12.36-13ZM12.24,35.87a2.63,2.63,0,0,1-5.25,0V32.12a2.63,2.63,0,0,1,2.63-2.63h2.62Z"/></svg>